<svg id="svg" version="1.1" xmlns="http://www.w3.org/2000/svg" xmlns:xlink="http://www.w3.org/1999/xlink" width="400" height="400" viewBox="0, 0, 400,400"><g id="svgg"><path id="path0" d="M79.786 79.297 C 79.681 79.574,79.641 134.250,79.698 200.800 L 79.800 321.800 104.400 321.800 L 129.000 321.800 129.103 292.971 L 129.205 264.143 135.503 257.989 C 138.966 254.604,143.870 249.845,146.400 247.413 C 148.930 244.981,154.100 239.978,157.888 236.296 C 161.677 232.613,165.025 229.600,165.328 229.600 C 165.632 229.600,167.466 231.265,169.405 233.300 C 171.343 235.335,177.715 241.943,183.564 247.985 C 195.940 260.768,202.500 267.563,205.979 271.200 C 207.346 272.630,210.835 276.231,213.732 279.201 C 216.630 282.172,223.590 289.360,229.200 295.175 C 234.810 300.990,241.672 308.100,244.449 310.974 C 247.225 313.848,250.752 317.505,252.286 319.100 L 255.075 322.000 287.471 322.000 C 320.364 322.000,320.915 321.980,319.693 320.829 C 318.800 319.988,313.744 314.662,306.193 306.608 C 302.897 303.092,298.497 298.412,296.415 296.208 C 294.334 294.004,291.018 290.490,289.046 288.400 C 287.075 286.310,284.273 283.340,282.820 281.800 C 276.073 274.650,272.548 270.909,266.801 264.795 C 260.960 258.581,254.537 251.785,253.200 250.404 C 252.870 250.063,251.429 248.528,249.998 246.992 C 248.568 245.456,244.593 241.230,241.167 237.600 C 234.984 231.050,216.609 211.539,210.842 205.400 C 209.189 203.640,206.257 200.565,204.327 198.566 L 200.818 194.933 207.709 188.156 C 214.954 181.031,225.527 170.758,227.013 169.400 C 227.494 168.960,231.117 165.450,235.063 161.600 C 239.009 157.750,244.840 152.088,248.019 149.018 C 251.199 145.948,256.680 140.634,260.200 137.208 C 267.215 130.381,288.644 109.625,297.170 101.400 C 300.135 98.540,305.899 92.938,309.980 88.951 C 314.061 84.964,317.988 81.173,318.708 80.525 C 319.427 79.878,319.892 79.225,319.741 79.074 C 319.590 78.923,305.502 78.801,288.433 78.802 L 257.400 78.804 254.800 81.266 C 253.370 82.620,243.315 92.474,232.456 103.164 C 221.596 113.854,212.571 122.690,212.399 122.800 C 212.122 122.977,190.659 144.026,164.207 170.062 C 159.143 175.047,153.110 180.960,150.800 183.204 C 148.490 185.447,142.730 191.089,138.000 195.741 L 129.400 204.200 129.200 141.600 L 129.000 79.000 104.489 78.897 C 85.092 78.815,79.937 78.899,79.786 79.297 " stroke="none" fill="#fbfbfc" fill-rule="evenodd"></path><path id="path1" d="M30.400 0.291 C 29.630 0.382,28.829 0.624,28.620 0.829 C 28.411 1.033,27.837 1.200,27.344 1.200 C 26.851 1.200,26.336 1.380,26.200 1.600 C 26.064 1.820,25.513 2.000,24.976 2.000 C 24.439 2.000,24.000 2.180,24.000 2.400 C 24.000 2.620,23.640 2.800,23.200 2.800 C 22.760 2.800,22.400 2.980,22.400 3.200 C 22.400 3.420,22.040 3.600,21.600 3.600 C 21.160 3.600,20.800 3.780,20.800 4.000 C 20.800 4.220,20.440 4.400,20.000 4.400 C 19.560 4.400,19.200 4.580,19.200 4.800 C 19.200 5.020,18.912 5.200,18.560 5.200 C 18.209 5.200,17.417 5.740,16.800 6.400 C 16.183 7.060,15.476 7.600,15.229 7.600 C 14.244 7.600,7.600 14.244,7.600 15.229 C 7.600 15.476,7.060 16.183,6.400 16.800 C 5.740 17.417,5.200 18.209,5.200 18.560 C 5.200 18.912,5.020 19.200,4.800 19.200 C 4.580 19.200,4.400 19.560,4.400 20.000 C 4.400 20.440,4.220 20.800,4.000 20.800 C 3.780 20.800,3.600 21.160,3.600 21.600 C 3.600 22.040,3.420 22.400,3.200 22.400 C 2.980 22.400,2.800 22.760,2.800 23.200 C 2.800 23.640,2.620 24.000,2.400 24.000 C 2.180 24.000,2.000 24.439,2.000 24.976 C 2.000 25.513,1.820 26.064,1.600 26.200 C 1.380 26.336,1.200 26.851,1.200 27.344 C 1.200 27.837,0.975 28.465,0.700 28.740 C -0.036 29.476,-0.036 370.524,0.700 371.260 C 0.975 371.535,1.200 372.163,1.200 372.656 C 1.200 373.149,1.380 373.664,1.600 373.800 C 1.820 373.936,2.000 374.487,2.000 375.024 C 2.000 375.561,2.180 376.000,2.400 376.000 C 2.620 376.000,2.800 376.360,2.800 376.800 C 2.800 377.240,2.980 377.600,3.200 377.600 C 3.420 377.600,3.600 377.960,3.600 378.400 C 3.600 378.840,3.780 379.200,4.000 379.200 C 4.220 379.200,4.400 379.560,4.400 380.000 C 4.400 380.440,4.580 380.800,4.800 380.800 C 5.020 380.800,5.200 381.088,5.200 381.440 C 5.200 381.791,5.740 382.583,6.400 383.200 C 7.060 383.817,7.600 384.524,7.600 384.771 C 7.600 385.756,14.244 392.400,15.229 392.400 C 15.476 392.400,16.183 392.940,16.800 393.600 C 17.417 394.260,18.209 394.800,18.560 394.800 C 18.912 394.800,19.200 394.980,19.200 395.200 C 19.200 395.420,19.560 395.600,20.000 395.600 C 20.440 395.600,20.800 395.780,20.800 396.000 C 20.800 396.220,21.160 396.400,21.600 396.400 C 22.040 396.400,22.400 396.580,22.400 396.800 C 22.400 397.020,22.760 397.200,23.200 397.200 C 23.640 397.200,24.000 397.380,24.000 397.600 C 24.000 397.820,24.439 398.000,24.976 398.000 C 25.513 398.000,26.064 398.180,26.200 398.400 C 26.336 398.620,26.851 398.800,27.344 398.800 C 27.837 398.800,28.465 399.025,28.740 399.300 C 29.476 400.036,370.524 400.036,371.260 399.300 C 371.535 399.025,372.163 398.800,372.656 398.800 C 373.149 398.800,373.664 398.620,373.800 398.400 C 373.936 398.180,374.487 398.000,375.024 398.000 C 375.561 398.000,376.000 397.820,376.000 397.600 C 376.000 397.380,376.360 397.200,376.800 397.200 C 377.240 397.200,377.600 397.020,377.600 396.800 C 377.600 396.580,377.960 396.400,378.400 396.400 C 378.840 396.400,379.200 396.220,379.200 396.000 C 379.200 395.780,379.560 395.600,380.000 395.600 C 380.440 395.600,380.800 395.420,380.800 395.200 C 380.800 394.980,381.088 394.800,381.440 394.800 C 381.791 394.800,382.583 394.260,383.200 393.600 C 383.817 392.940,384.524 392.400,384.771 392.400 C 385.192 392.400,387.036 390.887,388.962 388.962 C 390.887 387.036,392.400 385.192,392.400 384.771 C 392.400 384.524,392.940 383.817,393.600 383.200 C 394.260 382.583,394.800 381.791,394.800 381.440 C 394.800 381.088,394.980 380.800,395.200 380.800 C 395.420 380.800,395.600 380.440,395.600 380.000 C 395.600 379.560,395.780 379.200,396.000 379.200 C 396.220 379.200,396.400 378.840,396.400 378.400 C 396.400 377.960,396.580 377.600,396.800 377.600 C 397.020 377.600,397.200 377.240,397.200 376.800 C 397.200 376.360,397.380 376.000,397.600 376.000 C 397.820 376.000,398.000 375.561,398.000 375.024 C 398.000 374.487,398.180 373.936,398.400 373.800 C 398.620 373.664,398.800 373.149,398.800 372.656 C 398.800 372.163,399.025 371.535,399.300 371.260 C 400.036 370.524,400.036 29.476,399.300 28.740 C 399.025 28.465,398.800 27.837,398.800 27.344 C 398.800 26.851,398.620 26.336,398.400 26.200 C 398.180 26.064,398.000 25.513,398.000 24.976 C 398.000 24.439,397.820 24.000,397.600 24.000 C 397.380 24.000,397.200 23.640,397.200 23.200 C 397.200 22.760,397.020 22.400,396.800 22.400 C 396.580 22.400,396.400 22.040,396.400 21.600 C 396.400 21.160,396.220 20.800,396.000 20.800 C 395.780 20.800,395.600 20.440,395.600 20.000 C 395.600 19.560,395.420 19.200,395.200 19.200 C 394.980 19.200,394.800 18.912,394.800 18.560 C 394.800 18.209,394.260 17.417,393.600 16.800 C 392.940 16.183,392.400 15.476,392.400 15.229 C 392.400 14.244,385.756 7.600,384.771 7.600 C 384.524 7.600,383.817 7.060,383.200 6.400 C 382.583 5.740,381.791 5.200,381.440 5.200 C 381.088 5.200,380.800 5.020,380.800 4.800 C 380.800 4.580,380.440 4.400,380.000 4.400 C 379.560 4.400,379.200 4.220,379.200 4.000 C 379.200 3.780,378.840 3.600,378.400 3.600 C 377.960 3.600,377.600 3.420,377.600 3.200 C 377.600 2.980,377.240 2.800,376.800 2.800 C 376.360 2.800,376.000 2.620,376.000 2.400 C 376.000 2.180,375.561 2.000,375.024 2.000 C 374.487 2.000,373.936 1.820,373.800 1.600 C 373.664 1.380,373.149 1.200,372.656 1.200 C 372.163 1.200,371.535 0.975,371.260 0.700 C 370.782 0.222,34.383 -0.182,30.400 0.291 M129.200 141.600 L 129.400 204.200 138.000 195.741 C 142.730 191.089,148.490 185.447,150.800 183.204 C 153.110 180.960,159.143 175.047,164.207 170.062 C 190.659 144.026,212.122 122.977,212.399 122.800 C 212.571 122.690,221.596 113.854,232.456 103.164 C 243.315 92.474,253.370 82.620,254.800 81.266 L 257.400 78.804 288.433 78.802 C 305.502 78.801,319.590 78.923,319.741 79.074 C 319.892 79.225,319.427 79.878,318.708 80.525 C 317.988 81.173,314.061 84.964,309.980 88.951 C 305.899 92.938,300.135 98.540,297.170 101.400 C 288.644 109.625,267.215 130.381,260.200 137.208 C 256.680 140.634,251.199 145.948,248.019 149.018 C 244.840 152.088,239.009 157.750,235.063 161.600 C 231.117 165.450,227.494 168.960,227.013 169.400 C 225.527 170.758,214.954 181.031,207.709 188.156 L 200.818 194.933 204.327 198.566 C 206.257 200.565,209.189 203.640,210.842 205.400 C 216.609 211.539,234.984 231.050,241.167 237.600 C 244.593 241.230,248.568 245.456,249.998 246.992 C 251.429 248.528,252.870 250.063,253.200 250.404 C 254.537 251.785,260.960 258.581,266.801 264.795 C 272.548 270.909,276.073 274.650,282.820 281.800 C 284.273 283.340,287.075 286.310,289.046 288.400 C 291.018 290.490,294.334 294.004,296.415 296.208 C 298.497 298.412,302.897 303.092,306.193 306.608 C 313.744 314.662,318.800 319.988,319.693 320.829 C 320.915 321.980,320.364 322.000,287.471 322.000 L 255.075 322.000 252.286 319.100 C 250.752 317.505,247.225 313.848,244.449 310.974 C 241.672 308.100,234.810 300.990,229.200 295.175 C 223.590 289.360,216.630 282.172,213.732 279.201 C 210.835 276.231,207.346 272.630,205.979 271.200 C 202.500 267.563,195.940 260.768,183.564 247.985 C 177.715 241.943,171.343 235.335,169.405 233.300 C 167.466 231.265,165.632 229.600,165.328 229.600 C 165.025 229.600,161.677 232.613,157.888 236.296 C 154.100 239.978,148.930 244.981,146.400 247.413 C 143.870 249.845,138.966 254.604,135.503 257.989 L 129.205 264.143 129.103 292.971 L 129.000 321.800 104.400 321.800 L 79.800 321.800 79.698 200.800 C 79.641 134.250,79.681 79.574,79.786 79.297 C 79.937 78.899,85.092 78.815,104.489 78.897 L 129.000 79.000 129.200 141.600 " stroke="none" fill="#8b04fc" fill-rule="evenodd"></path></g></svg>